<?xml version="1.0" encoding="utf-8"?>
<!-- Generator: Adobe Illustrator 16.0.0, SVG Export Plug-In . SVG Version: 6.00 Build 0)  -->
<!DOCTYPE svg PUBLIC "-//W3C//DTD SVG 1.1//EN" "http://www.w3.org/Graphics/SVG/1.1/DTD/svg11.dtd">
<svg version="1.1" id="Layer_1" xmlns="http://www.w3.org/2000/svg" xmlns:xlink="http://www.w3.org/1999/xlink" x="0px" y="0px"
	 width="2000px" height="131.997px" viewBox="0 0 2000 131.997" enable-background="new 0 0 2000 131.997" xml:space="preserve">
<g display="none">
	<path display="inline" opacity="0.2" fill="#519DA5" enable-background="new    " d="M127.997-96.221v891.456H83.995V-19.993
		C110.299-35.209,127.997-63.646,127.997-96.221z"/>
	<path display="inline" opacity="0.2" fill="#811C4F" enable-background="new    " d="M84.003-19.993v815.23H40.001V-8.217
		C56.031-8.217,71.059-12.505,84.003-19.993z"/>
	<path display="inline" opacity="0.2" fill="#401540" enable-background="new    " d="M40.001-8.217v803.452H-4V-19.993
		C8.944-12.505,23.972-8.217,40.001-8.217z"/>
</g>
<path opacity="0.75" fill="#519DA5" enable-background="new    " d="M130.544,131.997H2000v-44H206.771
	C191.556,114.299,163.118,131.997,130.544,131.997z"/>
<path opacity="0.75" fill="#811C4F" enable-background="new    " d="M206.771,88.002H2000V44.001H218.548
	C218.548,60.031,214.26,75.059,206.771,88.002z"/>
<path opacity="0.75" fill="#401540" enable-background="new    " d="M218.548,44.001H2000V0H206.771
	C214.26,12.944,218.548,27.972,218.548,44.001z"/>
<path fill="#519DA5" d="M206.771,88.002H54.317c15.217,26.304,43.654,44.002,76.227,44.002
	C163.118,132.004,191.556,114.306,206.771,88.002z"/>
<path fill="#811C4F" d="M54.317,88.002h152.454c7.488-12.943,11.776-27.971,11.776-44H42.541
	C42.541,60.031,46.829,75.059,54.317,88.002z"/>
<path fill="#401540" d="M42.541,44.001h176.007c0-16.03-4.288-31.057-11.776-44.001H54.317
	C46.829,12.944,42.541,27.972,42.541,44.001z"/>
<g>
	<path fill="#FFFFFF" d="M114.067,77.148L98.319,56.353c-0.677,0.075-1.281,0.075-1.958,0.075H81.969v20.72h-2.185V24.405H96.36
		c10.773,0,17.631,7.158,17.631,15.974c0,7.609-5.124,14.089-13.486,15.671l16.048,21.097L114.067,77.148L114.067,77.148z
		 M96.585,54.469c9.722,0,15.146-5.425,15.146-14.089c0-8.741-5.424-14.015-15.146-14.015H81.969v28.104H96.585z"/>
	<path fill="#FFFFFF" d="M172.984,77.148h-0.303l-17.707-47.393l-17.856,47.393h-0.301l-17.029-52.743h2.261l15.069,46.564
		l17.632-46.564h0.302l17.63,46.564l15.146-46.564h2.185L172.984,77.148z"/>
</g>
<g display="none">
	<text transform="matrix(1 0 0 1 230.2051 29.6665)" display="inline" font-family="'VisbyCF-Thin'" font-size="18">Rachel Walwood</text>
	<text transform="matrix(1 0 0 1 216.2051 106.8481)" display="inline" font-family="'VisbyCF-Thin'" font-size="11">   walwoodr@gmail.com  </text>
	<text transform="matrix(1 0 0 1 216.2051 120.0483)" display="inline" font-family="'VisbyCF-Thin'" font-size="11">303-523-8536</text>
	<text transform="matrix(1 0 0 1 233.2051 70.0454)" display="inline" font-family="'VisbyCF-Thin'" font-size="13">rachelwalwood.com</text>
</g>
<g display="none">
	<path display="inline" opacity="0.6" fill="#519DA5" enable-background="new    " d="M24.604,769.573
		c5.548,0,10.382,3.021,12.976,7.5h613.494v-7.5H24.604z"/>
	<path display="inline" opacity="0.6" fill="#401540" enable-background="new    " d="M37.58,792.073h613.494v-7.5H39.603
		C39.603,787.307,38.859,789.864,37.58,792.073z"/>
	<path display="inline" opacity="0.6" fill="#811C4F" enable-background="new    " d="M39.603,784.573h611.471v-7.5H37.58
		C38.859,779.282,39.603,781.836,39.603,784.573z"/>
	<path display="inline" fill="#519DA5" d="M11.627,777.073H37.58c-2.594-4.479-7.428-7.5-12.976-7.5
		C19.055,769.573,14.222,772.594,11.627,777.073z"/>
	<path display="inline" opacity="0.2" fill="#FFFFFF" enable-background="new    " d="M11.627,777.073H37.58
		c-2.594-4.479-7.428-7.5-12.976-7.5C19.055,769.573,14.222,772.594,11.627,777.073z"/>
	<path display="inline" fill="#401540" d="M9.604,784.573c0,2.734,0.744,5.291,2.023,7.5H37.58c1.279-2.209,2.023-4.766,2.023-7.5
		H9.604z"/>
	<path display="inline" opacity="0.2" fill="#FFFFFF" enable-background="new    " d="M9.604,784.573c0,2.734,0.744,5.291,2.023,7.5
		H37.58c1.279-2.209,2.023-4.766,2.023-7.5H9.604z"/>
	<path display="inline" fill="#811C4F" d="M9.604,784.573h29.999c0-2.736-0.744-5.291-2.023-7.5H11.627
		C10.349,779.282,9.604,781.836,9.604,784.573z"/>
	<path display="inline" opacity="0.2" fill="#FFFFFF" enable-background="new    " d="M9.604,784.573h29.999
		c0-2.736-0.744-5.291-2.023-7.5H11.627C10.349,779.282,9.604,781.836,9.604,784.573z"/>
</g>
</svg>
